<?xml version="1.0" standalone="no"?>
<!DOCTYPE svg PUBLIC "-//W3C//DTD SVG 20010904//EN"
 "http://www.w3.org/TR/2001/REC-SVG-20010904/DTD/svg10.dtd">
<svg version="1.0" xmlns="http://www.w3.org/2000/svg"
 width="700.000000pt" height="700.000000pt" viewBox="0 0 700.000000 700.000000"
 preserveAspectRatio="xMidYMid meet">
<metadata>
Created by potrace 1.14, written by Peter Selinger 2001-2017
</metadata>
<g transform="translate(0.000000,700.000000) scale(0.100000,-0.100000)"
fill="#000000" stroke="none">
<path d="M2079 6599 c-5 -3 -8 -253 -7 -609 l3 -604 1655 0 1655 -1 0 -1055 0
-1055 -1654 -3 c-969 -1 -1657 -6 -1660 -11 -5 -7 -6 -1173 -2 -1203 1 -3 748
-6 1662 -6 913 0 1663 -3 1666 -5 2 -3 5 -375 5 -826 l0 -821 51 -1 c275 -3
1129 1 1137 6 6 4 10 1057 10 3101 l0 3094 -63 0 c-553 4 -4451 3 -4458 -1z"/>
<path d="M401 3498 l0 -3098 2264 0 2265 0 0 605 0 605 -1658 0 -1657 0 0
1060 c0 699 3 1060 10 1061 6 1 750 2 1655 3 l1645 1 3 603 2 602 -1665 0
c-1325 0 -1665 3 -1666 13 0 6 -1 379 -2 827 l-2 815 -597 1 -597 1 0 -3099z"/>
</g>
</svg>
